{
	"asset":{
		"generator":"Khronos glTF Blender I/O v4.2.57",
		"version":"2.0"
	},
	"scene":0,
	"scenes":[
		{
			"name":"Scene",
			"nodes":[
				1
			]
		}
	],
	"nodes":[
		{
			"mesh":0,
			"name":"geometry_0"
		},
		{
			"children":[
				0
			],
			"name":"octo"
		}
	],
	"materials":[
		{
			"name":"Material_0",
			"pbrMetallicRoughness":{
				"baseColorFactor":[
					0.4000000059604645,
					0.4000000059604645,
					0.4000000059604645,
					1
				],
				"baseColorTexture":{
					"index":0
				},
				"roughnessFactor":0.9036020040512085
			}
		}
	],
	"meshes":[
		{
			"name":"geometry_0",
			"primitives":[
				{
					"attributes":{
						"POSITION":0,
						"NORMAL":1,
						"TEXCOORD_0":2
					},
					"indices":3,
					"material":0
				}
			]
		}
	],
	"textures":[
		{
			"sampler":0,
			"source":0
		}
	],
	"images":[
		{
			"mimeType":"image/png",
			"name":"octo",
			"uri":"textures/octo.png"
		}
	],
	"accessors":[
		{
			"bufferView":0,
			"componentType":5126,
			"count":55900,
			"max":[
				0.4661719799041748,
				0.4587470591068268,
				0.48896482586860657
			],
			"min":[
				-0.5000377297401428,
				-0.4555261731147766,
				-0.49884167313575745
			],
			"type":"VEC3"
		},
		{
			"bufferView":1,
			"componentType":5126,
			"count":55900,
			"type":"VEC3"
		},
		{
			"bufferView":2,
			"componentType":5126,
			"count":55900,
			"type":"VEC2"
		},
		{
			"bufferView":3,
			"componentType":5123,
			"count":55914,
			"type":"SCALAR"
		}
	],
	"bufferViews":[
		{
			"buffer":0,
			"byteLength":670800,
			"byteOffset":0,
			"target":34962
		},
		{
			"buffer":0,
			"byteLength":670800,
			"byteOffset":670800,
			"target":34962
		},
		{
			"buffer":0,
			"byteLength":447200,
			"byteOffset":1341600,
			"target":34962
		},
		{
			"buffer":0,
			"byteLength":111828,
			"byteOffset":1788800,
			"target":34963
		}
	],
	"samplers":[
		{
			"magFilter":9729,
			"minFilter":9987
		}
	],
	"buffers":[
		{
			"byteLength":1900628,
			"uri":"octo.bin"
		}
	]
}
