{
	"asset":{
		"generator":"Khronos glTF Blender I/O v4.2.57",
		"version":"2.0"
	},
	"scene":0,
	"scenes":[
		{
			"name":"Scene",
			"nodes":[
				0
			]
		}
	],
	"nodes":[
		{
			"mesh":0,
			"name":"geometry_0"
		}
	],
	"materials":[
		{
			"name":"Material_0.001",
			"pbrMetallicRoughness":{
				"baseColorFactor":[
					0.4000000059604645,
					0.4000000059604645,
					0.4000000059604645,
					1
				],
				"roughnessFactor":0.9036020040512085
			}
		}
	],
	"meshes":[
		{
			"name":"geometry_0.001",
			"primitives":[
				{
					"attributes":{
						"POSITION":0,
						"NORMAL":1,
						"TEXCOORD_0":2
					},
					"indices":3,
					"material":0
				}
			]
		}
	],
	"accessors":[
		{
			"bufferView":0,
			"componentType":5126,
			"count":14351,
			"max":[
				0.4661719799041748,
				0.4587470591068268,
				0.48896482586860657
			],
			"min":[
				-0.5000377297401428,
				-0.4555261731147766,
				-0.49884167313575745
			],
			"type":"VEC3"
		},
		{
			"bufferView":1,
			"componentType":5126,
			"count":14351,
			"type":"VEC3"
		},
		{
			"bufferView":2,
			"componentType":5126,
			"count":14351,
			"type":"VEC2"
		},
		{
			"bufferView":3,
			"componentType":5123,
			"count":58794,
			"type":"SCALAR"
		}
	],
	"bufferViews":[
		{
			"buffer":0,
			"byteLength":172212,
			"byteOffset":0,
			"target":34962
		},
		{
			"buffer":0,
			"byteLength":172212,
			"byteOffset":172212,
			"target":34962
		},
		{
			"buffer":0,
			"byteLength":114808,
			"byteOffset":344424,
			"target":34962
		},
		{
			"buffer":0,
			"byteLength":117588,
			"byteOffset":459232,
			"target":34963
		}
	],
	"buffers":[
		{
			"byteLength":576820,
			"uri":"octo.bin"
		}
	]
}
